<?xml version="1.0" encoding="utf-8"?>
<svg viewBox="0 0 4000 500" width="4000" height="500" xmlns="http://www.w3.org/2000/svg">
  <rect width="4000" height="500" style="fill: rgb(187, 238, 255);"/>
  <g transform="matrix(0.985034, 0.172366, -0.172366, 0.985034, 33.637978, -63.556236)">
    <circle cx="50.989" cy="151.489" r="29.624" style="fill: rgb(255, 255, 255);"/>
    <circle cx="84.396" cy="139.024" r="39.024" style="fill: rgb(255, 255, 255);"/>
    <circle cx="118.599" cy="131.839" r="39.793" style="fill: rgb(255, 255, 255);"/>
    <circle cx="99.994" cy="114.15" r="36.595" style="fill: rgb(255, 255, 255);"/>
  </g>
  <g transform="matrix(0.985034, 0.172366, -0.172366, 0.985034, 323.63797, -63.556236)">
    <circle cx="50.989" cy="151.489" r="29.624" style="fill: rgb(255, 255, 255);"/>
    <circle cx="84.396" cy="139.024" r="39.024" style="fill: rgb(255, 255, 255);"/>
    <circle cx="118.599" cy="131.839" r="39.793" style="fill: rgb(255, 255, 255);"/>
    <circle cx="99.994" cy="114.15" r="36.595" style="fill: rgb(255, 255, 255);"/>
  </g>
  <g transform="matrix(0.985034, 0.172366, -0.172366, 0.985034, 703.637939, -63.556236)">
    <circle cx="50.989" cy="151.489" r="29.624" style="fill: rgb(255, 255, 255);"/>
    <circle cx="84.396" cy="139.024" r="39.024" style="fill: rgb(255, 255, 255);"/>
    <circle cx="118.599" cy="131.839" r="39.793" style="fill: rgb(255, 255, 255);"/>
    <circle cx="99.994" cy="114.15" r="36.595" style="fill: rgb(255, 255, 255);"/>
  </g>
  <g transform="matrix(0.985034, 0.172366, -0.172366, 0.985034, 1033.637939, -63.556236)">
    <circle cx="50.989" cy="151.489" r="29.624" style="fill: rgb(255, 255, 255);"/>
    <circle cx="84.396" cy="139.024" r="39.024" style="fill: rgb(255, 255, 255);"/>
    <circle cx="118.599" cy="131.839" r="39.793" style="fill: rgb(255, 255, 255);"/>
    <circle cx="99.994" cy="114.15" r="36.595" style="fill: rgb(255, 255, 255);"/>
  </g>
  <g transform="matrix(0.985034, 0.172366, -0.172366, 0.985034, 1323.637939, -63.556236)">
    <circle cx="50.989" cy="151.489" r="29.624" style="fill: rgb(255, 255, 255);"/>
    <circle cx="84.396" cy="139.024" r="39.024" style="fill: rgb(255, 255, 255);"/>
    <circle cx="118.599" cy="131.839" r="39.793" style="fill: rgb(255, 255, 255);"/>
    <circle cx="99.994" cy="114.15" r="36.595" style="fill: rgb(255, 255, 255);"/>
  </g>
  <g transform="matrix(0.985034, 0.172366, -0.172366, 0.985034, 1703.637939, -63.556236)">
    <circle cx="50.989" cy="151.489" r="29.624" style="fill: rgb(255, 255, 255);"/>
    <circle cx="84.396" cy="139.024" r="39.024" style="fill: rgb(255, 255, 255);"/>
    <circle cx="118.599" cy="131.839" r="39.793" style="fill: rgb(255, 255, 255);"/>
    <circle cx="99.994" cy="114.15" r="36.595" style="fill: rgb(255, 255, 255);"/>
  </g>
  <g transform="matrix(0.985034, 0.172366, -0.172366, 0.985034, 2033.637939, -63.556236)">
    <circle cx="50.989" cy="151.489" r="29.624" style="fill: rgb(255, 255, 255);"/>
    <circle cx="84.396" cy="139.024" r="39.024" style="fill: rgb(255, 255, 255);"/>
    <circle cx="118.599" cy="131.839" r="39.793" style="fill: rgb(255, 255, 255);"/>
    <circle cx="99.994" cy="114.15" r="36.595" style="fill: rgb(255, 255, 255);"/>
  </g>
  <g transform="matrix(0.985034, 0.172366, -0.172366, 0.985034, 2323.637939, -63.556236)">
    <circle cx="50.989" cy="151.489" r="29.624" style="fill: rgb(255, 255, 255);"/>
    <circle cx="84.396" cy="139.024" r="39.024" style="fill: rgb(255, 255, 255);"/>
    <circle cx="118.599" cy="131.839" r="39.793" style="fill: rgb(255, 255, 255);"/>
    <circle cx="99.994" cy="114.15" r="36.595" style="fill: rgb(255, 255, 255);"/>
  </g>
  <g transform="matrix(0.985034, 0.172366, -0.172366, 0.985034, 2703.637939, -63.556236)">
    <circle cx="50.989" cy="151.489" r="29.624" style="fill: rgb(255, 255, 255);"/>
    <circle cx="84.396" cy="139.024" r="39.024" style="fill: rgb(255, 255, 255);"/>
    <circle cx="118.599" cy="131.839" r="39.793" style="fill: rgb(255, 255, 255);"/>
    <circle cx="99.994" cy="114.15" r="36.595" style="fill: rgb(255, 255, 255);"/>
  </g>
  <g transform="matrix(0.985034, 0.172366, -0.172366, 0.985034, 3033.637939, -63.556236)">
    <circle cx="50.989" cy="151.489" r="29.624" style="fill: rgb(255, 255, 255);"/>
    <circle cx="84.396" cy="139.024" r="39.024" style="fill: rgb(255, 255, 255);"/>
    <circle cx="118.599" cy="131.839" r="39.793" style="fill: rgb(255, 255, 255);"/>
    <circle cx="99.994" cy="114.15" r="36.595" style="fill: rgb(255, 255, 255);"/>
  </g>
  <g transform="matrix(0.985034, 0.172366, -0.172366, 0.985034, 3323.637939, -63.556236)">
    <circle cx="50.989" cy="151.489" r="29.624" style="fill: rgb(255, 255, 255);"/>
    <circle cx="84.396" cy="139.024" r="39.024" style="fill: rgb(255, 255, 255);"/>
    <circle cx="118.599" cy="131.839" r="39.793" style="fill: rgb(255, 255, 255);"/>
    <circle cx="99.994" cy="114.15" r="36.595" style="fill: rgb(255, 255, 255);"/>
  </g>
  <g transform="matrix(0.985034, 0.172366, -0.172366, 0.985034, 3703.637939, -63.556236)">
    <circle cx="50.989" cy="151.489" r="29.624" style="fill: rgb(255, 255, 255);"/>
    <circle cx="84.396" cy="139.024" r="39.024" style="fill: rgb(255, 255, 255);"/>
    <circle cx="118.599" cy="131.839" r="39.793" style="fill: rgb(255, 255, 255);"/>
    <circle cx="99.994" cy="114.15" r="36.595" style="fill: rgb(255, 255, 255);"/>
  </g>
</svg>