<?xml version="1.0" encoding="utf-8"?>
<svg viewBox="0 0 4000 500" width="4000" height="500" xmlns="http://www.w3.org/2000/svg">
  <g transform="matrix(0.650312, 0.113795, -0.113795, 0.650312, 190.18129, 38.31765)">
    <g>
      <path d="M -62.403 368.342 C -52.728 383.143 -61.56 395.142 -82.13 395.142 C -102.703 395.142 -127.221 383.143 -136.896 368.342 C -146.572 353.541 -137.738 341.542 -117.168 341.542 C -96.598 341.542 -72.078 353.541 -62.403 368.342 Z M -15.953 357.066 C -3.207 376.562 -14.844 392.369 -41.941 392.369 C -69.039 392.369 -101.337 376.562 -114.083 357.066 C -126.828 337.568 -115.193 321.762 -88.094 321.762 C -60.997 321.762 -28.698 337.568 -15.953 357.066 Z M 23.77 350.566 C 36.765 370.448 24.901 386.565 -2.731 386.565 C -30.363 386.565 -63.299 370.448 -76.295 350.566 C -89.29 330.684 -77.427 314.566 -49.794 314.566 C -22.162 314.566 10.773 330.684 23.77 350.566 Z M -14.104 334.563 C -2.152 352.847 -13.063 367.669 -38.475 367.669 C -63.887 367.669 -94.175 352.847 -106.127 334.563 C -118.079 316.278 -107.168 301.457 -81.756 301.457 C -56.345 301.457 -26.056 316.278 -14.104 334.563 Z" style="stroke-width: 0px; fill: rgba(208, 208, 208, 0.37);" transform="matrix(0.817655, 0.575709, -0.575709, 0.817655, 190.3278, 95.687121)"/>
      <path d="M 474.698 274.331 C 484.372 289.13 475.541 301.126 454.972 301.126 C 434.401 301.126 409.884 289.13 400.21 274.331 C 390.535 259.532 399.368 247.535 419.937 247.535 C 440.505 247.535 465.024 259.532 474.698 274.331 Z M 521.145 263.057 C 533.891 282.55 522.254 298.355 495.158 298.355 C 468.062 298.355 435.767 282.55 423.021 263.057 C 410.277 243.562 421.911 227.756 449.008 227.756 C 476.103 227.756 508.4 243.562 521.145 263.057 Z M 560.868 256.557 C 573.863 276.436 561.999 292.552 534.367 292.552 C 506.736 292.552 473.802 276.436 460.807 256.557 C 447.813 236.678 459.675 220.562 487.305 220.562 C 514.936 220.562 547.871 236.678 560.868 256.557 Z M 522.994 240.557 C 534.946 258.838 524.035 273.658 498.624 273.658 C 473.214 273.658 442.928 258.838 430.977 240.557 C 419.026 222.273 429.936 207.453 455.346 207.453 C 480.755 207.453 511.042 222.273 522.994 240.557 Z" style="stroke-width: 0px; fill: rgba(208, 208, 208, 0.37);" transform="matrix(0.817654, 0.575709, -0.575709, 0.817654, 234.143704, -230.669751)"/>
      <path d="M 922.288 195.985 C 931.963 210.786 923.131 222.785 902.562 222.785 C 881.99 222.785 857.476 210.786 847.802 195.985 C 838.126 181.184 846.96 169.185 867.527 169.185 C 888.095 169.185 912.613 181.184 922.288 195.985 Z M 968.738 184.709 C 981.484 204.205 969.847 220.012 942.75 220.012 C 915.652 220.012 883.356 204.205 870.611 184.709 C 857.869 165.212 869.501 149.406 896.598 149.406 C 923.694 149.406 955.993 165.212 968.738 184.709 Z M 1008.461 178.209 C 1021.456 198.091 1009.592 214.208 981.96 214.208 C 954.328 214.208 921.392 198.091 908.396 178.209 C 895.403 158.328 907.264 142.212 934.897 142.212 C 962.529 142.212 995.464 158.328 1008.461 178.209 Z M 970.587 162.207 C 982.539 180.49 971.628 195.312 946.216 195.312 C 920.804 195.312 890.518 180.49 878.566 162.207 C 866.616 143.923 877.525 129.103 902.936 129.103 C 928.346 129.103 958.635 143.923 970.587 162.207 Z" style="stroke-width: 0px; fill: rgba(208, 208, 208, 0.37);" transform="matrix(0.817654, 0.575709, -0.575709, 0.817654, 270.655911, -502.638698)"/>
      <path d="M 1444.487 104.599 C 1454.16 119.4 1445.329 131.399 1424.76 131.399 C 1404.187 131.399 1379.669 119.4 1369.994 104.599 C 1360.318 89.798 1369.152 77.799 1389.722 77.799 C 1410.292 77.799 1434.812 89.798 1444.487 104.599 Z M 1490.93 93.323 C 1503.675 112.819 1492.038 128.626 1464.945 128.626 C 1437.851 128.626 1405.553 112.819 1392.807 93.323 C 1380.062 73.826 1391.697 58.02 1418.796 58.02 C 1445.892 58.02 1478.186 73.826 1490.93 93.323 Z M 1530.652 86.823 C 1543.647 106.705 1531.783 122.822 1504.151 122.822 C 1476.522 122.822 1443.591 106.705 1430.595 86.823 C 1417.6 66.942 1429.463 50.826 1457.094 50.826 C 1484.721 50.826 1517.655 66.942 1530.652 86.823 Z M 1492.778 70.821 C 1504.73 89.104 1493.819 103.926 1468.41 103.926 C 1443.003 103.926 1412.715 89.104 1400.763 70.821 C 1388.811 52.537 1399.722 37.717 1425.134 37.717 C 1450.544 37.717 1480.827 52.537 1492.778 70.821 Z" style="stroke-width: 0px; fill: rgba(208, 208, 208, 0.37);" transform="matrix(0.817654, 0.575709, -0.575709, 0.817654, 313.263425, -819.933003)"/>
      <path d="M 1951.728 15.808 C 1961.402 30.608 1952.571 42.604 1932.005 42.604 C 1911.433 42.604 1886.917 30.608 1877.245 15.808 C 1867.571 1.014 1876.403 -10.985 1896.968 -10.985 C 1917.538 -10.985 1942.056 1.014 1951.728 15.808 Z M 1998.174 4.537 C 2010.92 24.028 1999.283 39.833 1972.189 39.833 C 1945.093 39.833 1912.799 24.028 1900.053 4.537 C 1887.31 -14.957 1898.943 -30.761 1926.041 -30.761 C 1953.134 -30.761 1985.432 -14.957 1998.174 4.537 Z M 2037.895 -1.961 C 2050.888 17.914 2039.026 34.03 2011.396 34.03 C 1983.767 34.03 1950.832 17.914 1937.839 -1.961 C 1924.845 -21.84 1936.707 -37.953 1964.336 -37.953 C 1991.967 -37.953 2024.9 -21.84 2037.895 -1.961 Z M 2000.023 -17.962 C 2011.975 0.32 2001.064 15.135 1975.655 15.135 C 1950.244 15.135 1919.961 0.32 1908.009 -17.962 C 1896.057 -36.243 1906.968 -51.062 1932.379 -51.062 C 1957.785 -51.062 1988.074 -36.243 2000.023 -17.962 Z" style="stroke-width: 0px; fill: rgba(208, 208, 208, 0.37);" transform="matrix(0.817654, 0.575709, -0.575709, 0.817654, 354.642142, -1128.149714)"/>
      <path d="M 2414.197 -65.168 C 2423.871 -50.368 2415.04 -38.372 2394.474 -38.372 C 2373.902 -38.372 2349.385 -50.368 2339.713 -65.168 C 2330.039 -79.962 2338.871 -91.96 2359.437 -91.96 C 2380.007 -91.96 2404.525 -79.962 2414.197 -65.168 Z M 2460.642 -76.439 C 2473.388 -56.948 2461.751 -41.143 2434.658 -41.143 C 2407.562 -41.143 2375.268 -56.948 2362.522 -76.439 C 2349.778 -95.932 2361.412 -111.736 2388.51 -111.736 C 2415.603 -111.736 2447.9 -95.932 2460.642 -76.439 Z M 2500.364 -82.937 C 2513.357 -63.062 2501.495 -46.946 2473.864 -46.946 C 2446.235 -46.946 2413.301 -63.062 2400.308 -82.937 C 2387.314 -102.815 2399.176 -118.927 2426.805 -118.927 C 2454.435 -118.927 2487.368 -102.815 2500.364 -82.937 Z M 2462.491 -98.937 C 2474.443 -80.656 2463.532 -65.841 2438.123 -65.841 C 2412.713 -65.841 2382.43 -80.656 2370.478 -98.937 C 2358.526 -117.219 2369.437 -132.035 2394.848 -132.035 C 2420.254 -132.035 2450.542 -117.219 2462.491 -98.937 Z" style="stroke-width: 0px; fill: rgba(208, 208, 208, 0.37);" transform="matrix(0.817654, 0.575709, -0.575709, 0.817654, 392.353433, -1409.16245)"/>
      <path d="M 2861.758 -143.529 C 2871.432 -128.729 2862.601 -116.733 2842.035 -116.733 C 2821.463 -116.733 2796.946 -128.729 2787.273 -143.529 C 2777.598 -158.323 2786.431 -170.321 2806.998 -170.321 C 2827.568 -170.321 2852.086 -158.323 2861.758 -143.529 Z M 2908.203 -154.8 C 2920.949 -135.309 2909.312 -119.504 2882.219 -119.504 C 2855.123 -119.504 2822.829 -135.309 2810.083 -154.8 C 2797.339 -174.293 2808.973 -190.097 2836.071 -190.097 C 2863.164 -190.097 2895.461 -174.293 2908.203 -154.8 Z M 2947.925 -161.298 C 2960.918 -141.423 2949.056 -125.307 2921.425 -125.307 C 2893.796 -125.307 2860.862 -141.423 2847.869 -161.298 C 2834.875 -181.176 2846.737 -197.288 2874.366 -197.288 C 2901.996 -197.288 2934.929 -181.176 2947.925 -161.298 Z M 2910.052 -177.298 C 2922.004 -159.017 2911.093 -144.202 2885.684 -144.202 C 2860.274 -144.202 2829.991 -159.017 2818.039 -177.298 C 2806.087 -195.58 2816.998 -210.396 2842.409 -210.396 C 2867.815 -210.396 2898.103 -195.58 2910.052 -177.298 Z" style="stroke-width: 0px; fill: rgba(208, 208, 208, 0.37);" transform="matrix(0.817654, 0.575709, -0.575709, 0.817654, 428.850874, -1681.115765)"/>
      <path d="M 3443.586 -245.405 C 3453.26 -230.605 3444.429 -218.609 3423.864 -218.609 C 3403.293 -218.609 3378.776 -230.605 3369.103 -245.405 C 3359.428 -260.199 3368.261 -272.197 3388.828 -272.197 C 3409.397 -272.197 3433.915 -260.199 3443.586 -245.405 Z M 3490.03 -256.676 C 3502.775 -237.185 3491.139 -221.38 3464.047 -221.38 C 3436.952 -221.38 3404.659 -237.185 3391.913 -256.676 C 3379.169 -276.169 3390.803 -291.973 3417.9 -291.973 C 3444.992 -291.973 3477.288 -276.169 3490.03 -256.676 Z M 3529.748 -263.174 C 3542.741 -243.299 3530.879 -227.183 3503.251 -227.183 C 3475.623 -227.183 3442.69 -243.299 3429.698 -263.174 C 3416.704 -283.052 3428.566 -299.164 3456.194 -299.164 C 3483.823 -299.164 3516.755 -283.052 3529.748 -263.174 Z M 3491.879 -279.174 C 3503.83 -260.893 3492.92 -246.078 3467.512 -246.078 C 3442.102 -246.078 3411.82 -260.893 3399.869 -279.174 C 3387.917 -297.456 3398.828 -312.272 3424.238 -312.272 C 3449.643 -312.272 3479.93 -297.456 3491.879 -279.174 Z" style="stroke-width: 0px; fill: rgba(208, 208, 208, 0.37);" transform="matrix(0.817654, 0.575709, -0.575709, 0.817654, 476.293402, -2034.655391)"/>
      <path d="M 3980.622 -339.444 C 3990.296 -324.645 3981.465 -312.65 3960.901 -312.65 C 3940.331 -312.65 3915.818 -324.645 3906.146 -339.444 C 3896.472 -354.238 3905.304 -366.235 3925.869 -366.235 C 3946.434 -366.235 3970.951 -354.238 3980.622 -339.444 Z M 4027.063 -350.715 C 4039.807 -331.224 4028.172 -315.421 4001.082 -315.421 C 3973.988 -315.421 3941.697 -331.224 3928.954 -350.715 C 3916.211 -370.207 3927.844 -386.011 3954.937 -386.011 C 3982.028 -386.011 4014.321 -370.207 4027.063 -350.715 Z M 4066.779 -357.213 C 4079.77 -337.338 4067.91 -321.223 4040.283 -321.223 C 4012.656 -321.223 3979.726 -337.338 3966.735 -357.213 C 3953.741 -377.09 3965.603 -393.202 3993.23 -393.202 C 4020.856 -393.202 4053.787 -377.09 4066.779 -357.213 Z M 4028.912 -373.212 C 4040.862 -354.932 4029.953 -340.117 4004.546 -340.117 C 3979.138 -340.117 3948.857 -354.932 3936.908 -373.212 C 3924.958 -391.494 3935.867 -406.308 3961.275 -406.308 C 3986.679 -406.308 4016.963 -391.494 4028.912 -373.212 Z" style="stroke-width: 0px; fill: rgba(208, 208, 208, 0.37);" transform="matrix(0.817654, 0.575709, -0.575709, 0.817654, 520.080807, -2360.979914)"/>
      <path d="M 4428.144 -417.814 C 4437.818 -403.014 4428.987 -391.019 4408.422 -391.019 C 4387.852 -391.019 4363.336 -403.014 4353.664 -417.814 C 4343.99 -432.607 4352.822 -444.604 4373.387 -444.604 C 4393.955 -444.604 4418.473 -432.607 4428.144 -417.814 Z M 4474.588 -429.084 C 4487.331 -409.594 4475.697 -393.79 4448.605 -393.79 C 4421.51 -393.79 4389.218 -409.594 4376.472 -429.084 C 4363.729 -448.576 4375.362 -464.38 4402.458 -464.38 C 4429.55 -464.38 4461.846 -448.576 4474.588 -429.084 Z M 4514.298 -435.582 C 4527.291 -415.708 4515.429 -399.593 4487.807 -399.593 C 4460.181 -399.593 4427.248 -415.708 4414.256 -435.582 C 4401.262 -455.459 4413.124 -471.571 4440.752 -471.571 C 4468.381 -471.571 4501.311 -455.459 4514.298 -435.582 Z M 4476.437 -451.581 C 4488.386 -433.301 4477.478 -418.487 4452.07 -418.487 C 4426.66 -418.487 4396.378 -433.301 4384.428 -451.581 C 4372.476 -469.863 4383.387 -484.678 4408.796 -484.678 C 4434.201 -484.678 4464.488 -469.863 4476.437 -451.581 Z" style="stroke-width: 0px; fill: rgba(208, 208, 208, 0.37);" transform="matrix(0.817654, 0.575709, -0.575709, 0.817654, 556.565848, -2632.911098)"/>
      <path d="M 4950.263 -509.248 C 4959.937 -494.448 4951.106 -482.452 4930.541 -482.452 C 4909.971 -482.452 4885.455 -494.448 4875.783 -509.248 C 4866.109 -524.042 4874.941 -536.04 4895.506 -536.04 C 4916.074 -536.04 4940.592 -524.042 4950.263 -509.248 Z M 4996.707 -520.519 C 5009.451 -501.028 4997.816 -485.223 4970.724 -485.223 C 4943.629 -485.223 4911.337 -501.028 4898.591 -520.519 C 4885.848 -540.012 4897.481 -555.816 4924.577 -555.816 C 4951.669 -555.816 4983.965 -540.012 4996.707 -520.519 Z M 5036.424 -527.017 C 5049.417 -507.142 5037.555 -491.026 5009.927 -491.026 C 4982.3 -491.026 4949.367 -507.142 4936.375 -527.017 C 4923.381 -546.895 4935.243 -563.006 4962.871 -563.006 C 4990.5 -563.006 5023.431 -546.895 5036.424 -527.017 Z M 4998.556 -543.017 C 5010.506 -524.736 4999.597 -509.921 4974.189 -509.921 C 4948.779 -509.921 4918.497 -524.736 4906.547 -543.017 C 4894.595 -561.298 4905.506 -576.114 4930.915 -576.114 C 4956.32 -576.114 4986.607 -561.298 4998.556 -543.017 Z" style="stroke-width: 0px; fill: rgba(208, 208, 208, 0.37);" transform="matrix(0.817654, 0.575709, -0.575709, 0.817654, 599.132872, -2950.174558)"/>
      <path d="M 5397.778 -587.612 C 5407.449 -572.812 5398.62 -560.816 5378.057 -560.816 C 5357.488 -560.816 5332.974 -572.812 5323.302 -587.612 C 5313.63 -602.406 5322.46 -614.404 5343.025 -614.404 C 5363.59 -614.404 5388.108 -602.406 5397.778 -587.612 Z M 5444.213 -598.883 C 5456.957 -579.392 5445.322 -563.587 5418.236 -563.587 C 5391.144 -563.587 5358.854 -579.392 5346.11 -598.883 C 5333.367 -618.376 5345 -634.18 5372.093 -634.18 C 5399.183 -634.18 5431.476 -618.376 5444.213 -598.883 Z M 5483.925 -605.381 C 5496.918 -585.506 5485.056 -569.39 5457.433 -569.39 C 5429.811 -569.39 5396.882 -585.506 5383.891 -605.381 C 5370.897 -625.259 5382.759 -641.371 5410.383 -641.371 C 5438.008 -641.371 5470.936 -625.259 5483.925 -605.381 Z M 5446.062 -621.381 C 5458.012 -603.1 5447.103 -588.285 5421.701 -588.285 C 5396.294 -588.285 5366.013 -603.1 5354.065 -621.381 C 5342.114 -639.663 5353.025 -654.479 5378.431 -654.479 C 5403.833 -654.479 5434.117 -639.663 5446.062 -621.381 Z" style="stroke-width: 0px; fill: rgba(208, 208, 208, 0.37);" transform="matrix(0.817654, 0.575709, -0.575709, 0.817654, 635.6192, -3222.099766)"/>
    </g>
  </g>
</svg>