<?xml version="1.0" encoding="utf-8"?>
<svg viewBox="0 0 8000 500" width="8000" height="500" xmlns="http://www.w3.org/2000/svg" xmlns:bx="https://boxy-svg.com">
  <path transform="matrix(0.035574, 1.018706, -1.018706, 0.035574, 526.852051, -113.473068)" d="M 360.745294745 99.476284493 A 164.624 164.624 0 1 1 352.126915043 99.401073033 L 355 264 Z" style="fill: rgba(239, 239, 239, 0.38);" bx:shape="pie 355 264 0 164.624 2 359 1@12b17330"/>
  <path transform="matrix(0.035574, 1.018706, -1.018706, 0.035574, 524.391541, -126.562729)" d="M 360.745294745 99.476284493 A 164.624 164.624 0 1 1 352.126915043 99.401073033 L 355 264 Z" style="fill: rgb(253, 245, 98);" bx:shape="pie 355 264 0 164.624 2 359 1@12b17330"/>
  <path transform="matrix(0.035574, 1.018706, -1.018706, 0.035574, 1025.852051, -113.473068)" d="M 360.745294745 99.476284493 A 164.624 164.624 0 1 1 323.588259945 102.400606552 L 355 264 Z" style="fill: rgba(239, 239, 239, 0.38);" bx:shape="pie 355 264 0 164.624 2 349 1@959e20c1"/>
  <path transform="matrix(0.035574, 1.018706, -1.018706, 0.035574, 1023.391602, -126.562729)" d="M 360.745294745 99.476284493 A 164.624 164.624 0 1 1 323.588259945 102.400606552 L 355 264 Z" style="fill: rgb(253, 245, 98);" bx:shape="pie 355 264 0 164.624 2 349 1@959e20c1"/>
  <path transform="matrix(0.035574, 1.018706, -1.018706, 0.035574, 1525.852051, -113.473068)" d="M 360.745294745 99.476284493 A 164.624 164.624 0 1 1 296.004034674 110.310255868 L 355 264 Z" style="fill: rgba(239, 239, 239, 0.38);" bx:shape="pie 355 264 0 164.624 2 339 1@12f6c7af"/>
  <path transform="matrix(0.035574, 1.018706, -1.018706, 0.035574, 1523.391602, -126.562729)" d="M 360.745294745 99.476284493 A 164.624 164.624 0 1 1 296.004034674 110.310255868 L 355 264 Z" style="fill: rgb(253, 245, 98);" bx:shape="pie 355 264 0 164.624 2 339 1@12f6c7af"/>
  <path transform="matrix(0.035574, 1.018706, -1.018706, 0.035574, 2025.852173, -113.473068)" d="M 360.745294745 99.476284493 A 164.624 164.624 0 1 1 270.212371956 122.889690289 L 355 264 Z" style="fill: rgba(239, 239, 239, 0.38);" bx:shape="pie 355 264 0 164.624 2 329 1@1735ac4c"/>
  <path transform="matrix(0.035574, 1.018706, -1.018706, 0.035574, 2023.391602, -126.562729)" d="M 360.745294745 99.476284493 A 164.624 164.624 0 1 1 270.212371956 122.889690289 L 355 264 Z" style="fill: rgb(253, 245, 98);" bx:shape="pie 355 264 0 164.624 2 329 1@1735ac4c"/>
  <path transform="matrix(0.035574, 1.018706, -1.018706, 0.035574, 2526.852051, -113.473068)" d="M 360.745294745 99.476284493 A 164.624 164.624 0 1 1 246.996938411 139.756690065 L 355 264 Z" style="fill: rgba(239, 239, 239, 0.38);" bx:shape="pie 355 264 0 164.624 2 319 1@64533e8f"/>
  <path transform="matrix(0.035574, 1.018706, -1.018706, 0.035574, 2524.391602, -126.562729)" d="M 360.745294745 99.476284493 A 164.624 164.624 0 1 1 246.996938411 139.756690065 L 355 264 Z" style="fill: rgb(253, 245, 98);" bx:shape="pie 355 264 0 164.624 2 319 1@64533e8f"/>
  <path transform="matrix(0.035574, 1.018706, -1.018706, 0.035574, 3026.852051, -113.473068)" d="M 360.745294745 99.476284493 A 164.624 164.624 0 1 1 227.063123241 160.398759944 L 355 264 Z" style="fill: rgba(239, 239, 239, 0.38);" bx:shape="pie 355 264 0 164.624 2 309 1@5ae650b9"/>
  <path transform="matrix(0.035574, 1.018706, -1.018706, 0.035574, 3024.391602, -126.562729)" d="M 360.745294745 99.476284493 A 164.624 164.624 0 1 1 227.063123241 160.398759944 L 355 264 Z" style="fill: rgb(253, 245, 98);" bx:shape="pie 355 264 0 164.624 2 309 1@5ae650b9"/>
  <path transform="matrix(0.035574, 1.018706, -1.018706, 0.035574, 3526.852051, -113.473068)" d="M 360.745294745 99.476284493 A 164.624 164.624 0 1 1 211.016605332 184.188701077 L 355 264 Z" style="fill: rgba(239, 239, 239, 0.38);" bx:shape="pie 355 264 0 164.624 2 299 1@c8a5d7db"/>
  <path transform="matrix(0.035574, 1.018706, -1.018706, 0.035574, 3524.391602, -126.562729)" d="M 360.745294745 99.476284493 A 164.624 164.624 0 1 1 211.016605332 184.188701077 L 355 264 Z" style="fill: rgb(253, 245, 98);" bx:shape="pie 355 264 0 164.624 2 299 1@c8a5d7db"/>
  <path transform="matrix(0.035574, 1.018706, -1.018706, 0.035574, 4026.852051, -113.473068)" d="M 360.745294745 99.476284493 A 164.624 164.624 0 1 1 199.344950011 210.403668141 L 355 264 Z" style="fill: rgba(239, 239, 239, 0.38);" bx:shape="pie 355 264 0 164.624 2 289 1@df25dd1c"/>
  <path transform="matrix(0.035574, 1.018706, -1.018706, 0.035574, 4024.391602, -126.562729)" d="M 360.745294745 99.476284493 A 164.624 164.624 0 1 1 199.344950011 210.403668141 L 355 264 Z" style="fill: rgb(253, 245, 98);" bx:shape="pie 355 264 0 164.624 2 289 1@df25dd1c"/>
  <path transform="matrix(0.035574, 1.018706, -1.018706, 0.035574, 4526.852051, -113.473068)" d="M 360.745294745 99.476284493 A 164.624 164.624 0 1 1 192.402794618 238.247132627 L 355 264 Z" style="fill: rgba(239, 239, 239, 0.38);" bx:shape="pie 355 264 0 164.624 2 279 1@5cdef111"/>
  <path transform="matrix(0.035574, 1.018706, -1.018706, 0.035574, 4524.391602, -126.562729)" d="M 360.745294745 99.476284493 A 164.624 164.624 0 1 1 192.402794618 238.247132627 L 355 264 Z" style="fill: rgb(253, 245, 98);" bx:shape="pie 355 264 0 164.624 2 279 1@5cdef111"/>
  <path transform="matrix(0.035574, 1.018706, -1.018706, 0.035574, 5028.852051, -113.473068)" d="M 360.745294745 99.476284493 A 164.624 164.624 0 1 1 199.344950011 210.403668141 L 355 264 Z" style="fill: rgba(239, 239, 239, 0.38);" bx:shape="pie 355 264 0 164.624 2 289 1@df25dd1c"/>
  <path transform="matrix(0.035574, 1.018706, -1.018706, 0.035574, 5026.391602, -126.562729)" d="M 360.745294745 99.476284493 A 164.624 164.624 0 1 1 199.344950011 210.403668141 L 355 264 Z" style="fill: rgb(253, 245, 98);" bx:shape="pie 355 264 0 164.624 2 289 1@df25dd1c"/>
  <path transform="matrix(0.035574, 1.018706, -1.018706, 0.035574, 5527.852051, -113.473068)" d="M 360.745294745 99.476284493 A 164.624 164.624 0 1 1 211.016605332 184.188701077 L 355 264 Z" style="fill: rgba(239, 239, 239, 0.38);" bx:shape="pie 355 264 0 164.624 2 299 1@c8a5d7db"/>
  <path transform="matrix(0.035574, 1.018706, -1.018706, 0.035574, 5525.391602, -126.562729)" d="M 360.745294745 99.476284493 A 164.624 164.624 0 1 1 211.016605332 184.188701077 L 355 264 Z" style="fill: rgb(253, 245, 98);" bx:shape="pie 355 264 0 164.624 2 299 1@c8a5d7db"/>
  <path transform="matrix(0.035574, 1.018706, -1.018706, 0.035574, 6028.852051, -113.473068)" d="M 360.745294745 99.476284493 A 164.624 164.624 0 1 1 227.063123241 160.398759944 L 355 264 Z" style="fill: rgba(239, 239, 239, 0.38);" bx:shape="pie 355 264 0 164.624 2 309 1@5ae650b9"/>
  <path transform="matrix(0.035574, 1.018706, -1.018706, 0.035574, 6026.391602, -126.562729)" d="M 360.745294745 99.476284493 A 164.624 164.624 0 1 1 227.063123241 160.398759944 L 355 264 Z" style="fill: rgb(253, 245, 98);" bx:shape="pie 355 264 0 164.624 2 309 1@5ae650b9"/>
  <path transform="matrix(0.035574, 1.018706, -1.018706, 0.035574, 6527.852051, -113.473068)" d="M 360.745294745 99.476284493 A 164.624 164.624 0 1 1 246.996938411 139.756690065 L 355 264 Z" style="fill: rgba(239, 239, 239, 0.38);" bx:shape="pie 355 264 0 164.624 2 319 1@64533e8f"/>
  <path transform="matrix(0.035574, 1.018706, -1.018706, 0.035574, 6525.391602, -126.562729)" d="M 360.745294745 99.476284493 A 164.624 164.624 0 1 1 246.996938411 139.756690065 L 355 264 Z" style="fill: rgb(253, 245, 98);" bx:shape="pie 355 264 0 164.624 2 319 1@64533e8f"/>
  <path transform="matrix(0.035574, 1.018706, -1.018706, 0.035574, 7027.852051, -113.473068)" d="M 360.745294745 99.476284493 A 164.624 164.624 0 1 1 270.212371956 122.889690289 L 355 264 Z" style="fill: rgba(239, 239, 239, 0.38);" bx:shape="pie 355 264 0 164.624 2 329 1@1735ac4c"/>
  <path transform="matrix(0.035574, 1.018706, -1.018706, 0.035574, 7025.391602, -126.562729)" d="M 360.745294745 99.476284493 A 164.624 164.624 0 1 1 270.212371956 122.889690289 L 355 264 Z" style="fill: rgb(253, 245, 98);" bx:shape="pie 355 264 0 164.624 2 329 1@1735ac4c"/>
  <path transform="matrix(0.035574, 1.018706, -1.018706, 0.035574, 7526.852051, -113.473068)" d="M 360.745294745 99.476284493 A 164.624 164.624 0 1 1 296.004034674 110.310255868 L 355 264 Z" style="fill: rgba(239, 239, 239, 0.38);" bx:shape="pie 355 264 0 164.624 2 339 1@12f6c7af"/>
  <path transform="matrix(0.035574, 1.018706, -1.018706, 0.035574, 7524.391602, -126.562729)" d="M 360.745294745 99.476284493 A 164.624 164.624 0 1 1 296.004034674 110.310255868 L 355 264 Z" style="fill: rgb(253, 245, 98);" bx:shape="pie 355 264 0 164.624 2 339 1@12f6c7af"/>
  <path transform="matrix(0.035574, 1.018706, -1.018706, 0.035574, 8026.852051, -113.473068)" d="M 360.745294745 99.476284493 A 164.624 164.624 0 1 1 323.588259945 102.400606552 L 355 264 Z" style="fill: rgba(239, 239, 239, 0.38);" bx:shape="pie 355 264 0 164.624 2 349 1@959e20c1"/>
  <path transform="matrix(0.035574, 1.018706, -1.018706, 0.035574, 8024.391602, -126.562729)" d="M 360.745294745 99.476284493 A 164.624 164.624 0 1 1 323.588259945 102.400606552 L 355 264 Z" style="fill: rgb(253, 245, 98);" bx:shape="pie 355 264 0 164.624 2 349 1@959e20c1"/>
</svg>