<?xml version="1.0" encoding="utf-8"?>
<svg viewBox="0 0 4000 500" width="4000" height="500" xmlns="http://www.w3.org/2000/svg">
  <path style="stroke-width: 0px; stroke: rgb(0, 0, 0); fill: rgba(0, 0, 0, 0.067);" d="M 767.325 506.172 C 776.906 505.216 761.665 475.426 747.968 451.295 C 732.723 424.438 712.771 395.378 696.919 377.356 C 689.303 375.405 683.102 372.291 680.027 368.653 C 675.505 371.058 668.527 372.545 660.164 372.545 C 648.495 372.545 637.207 369.648 630.446 365.405 C 621.32 366.912 613.549 369.292 609.429 372.974 C 603.484 373.258 513.158 385.035 503.594 370.748 C 537.95 354.246 617.475 363.764 604.655 350.033 C 611.787 349.969 619.466 350.52 627.185 351.434 C 627.978 350.802 628.91 350.212 629.97 349.671 C 626.817 349.526 623.692 349.537 620.63 349.736 C 615.392 347.947 522.684 324.764 540.02 313.963 C 596.293 316.322 643.155 347.418 656.918 335.852 C 661.417 337.632 665.535 339.717 669.284 341.968 C 673.14 340.377 678.472 339.424 684.692 339.424 C 692.337 339.424 699.79 340.863 705.493 343.156 C 712.286 339.364 720.483 335.914 730.026 333.974 C 741.77 347.811 792.884 325.44 848.736 333.065 C 864.124 346.779 769.061 353.243 763.611 354.081 C 748.402 350.325 730.822 351.072 715.857 353.129 C 715.852 353.283 715.837 353.435 715.816 353.587 C 725.403 355.203 733.589 358.621 737.619 362.81 C 750.059 364.997 763.006 366.057 773.92 364.373 C 779.654 365.786 877.621 382.187 865.538 394.486 C 810.898 396.424 753.397 368.462 745.035 381.265 C 740.574 379.968 736.302 378.404 732.247 376.672 C 727.752 378.46 721.619 379.525 714.496 379.525 C 714.303 379.525 714.109 379.524 713.915 379.523 C 737.94 406.761 770.892 450.486 790.541 479.249 C 802.843 497.257 816.937 504.644 816.29 506.445 Z M 609.266 373.121 C 609.319 373.072 609.374 373.023 609.429 372.974 C 609.875 372.953 609.845 372.996 609.266 373.121 Z M 774.277 364.317 C 774.159 364.336 774.039 364.355 773.92 364.373 C 773.489 364.267 773.579 364.245 774.277 364.317 Z M 620.245 349.762 C 620.373 349.753 620.503 349.745 620.63 349.736 C 621.024 349.871 620.925 349.885 620.245 349.762 Z M 763.611 354.081 C 763.737 354.111 763.863 354.142 763.988 354.175 C 763.298 354.175 763.201 354.143 763.611 354.081 Z" transform="matrix(0.999248, -0.038765, 0.038765, 0.999248, -15.386629, 26.865535)"/>
  <rect y="300" width="500" height="200" style="fill: none; stroke-width: 5px;" x="4"/>
  <path style="stroke: rgb(0, 0, 0); fill: none; stroke-width: 5px;" d="M -1.166 420.486"/>
  <path style="stroke: rgb(0, 0, 0); fill: none; stroke-width: 5px;" d="M 235.599 1049.8"/>
  <path style="fill: rgb(216, 216, 216); stroke: rgb(0, 0, 0); stroke-width: 5px;" d="M 356.493 1242.577"/>
  <path style="fill: rgb(216, 216, 216); stroke: rgb(0, 0, 0);" d="M 885.814 703.454"/>
  <path style="stroke-width: 2px; stroke: rgb(0, 0, 0); fill: rgb(127, 100, 2);" d="M 775.393 499.511 C 783.203 497.804 780.59 444.609 777.414 401.516 C 771.72 324.26 758.241 236.802 748.503 237.948 L 757.465 231.429 C 765.168 208.321 791.455 366.452 802.027 451.435 C 806.028 483.593 814.762 496.784 813.691 500 L 775.393 499.511 Z"/>
  <path style="stroke: rgb(0, 0, 0); stroke-width: 3px; fill: rgb(161, 220, 172);" d="M 613.973 224.057 C 614.916 223.113 634.666 260.989 660.236 271.943 C 665.106 247.232 712.18 287.182 753.573 273.566 C 761.922 247.232 672.799 235.869 680.527 235.869 C 655.804 251.685 613.377 224.256 613.973 224.057 Z" transform="matrix(-0.911107, 0.412169, -0.412169, -0.911107, 1410.434637, 196.328239)"/>
  <path style="stroke: rgb(0, 0, 0); stroke-width: 3px; fill: rgb(161, 220, 172);" d="M 755.239 234.808 C 756.183 233.865 775.933 271.741 801.503 282.694 C 806.373 257.983 853.447 297.934 894.84 284.317 C 903.189 257.983 814.066 246.62 821.794 246.62 C 797.071 262.437 754.644 235.007 755.239 234.808 Z" transform="matrix(0.971736, 0.23607, -0.23607, 0.971736, 84.943166, -187.454426)"/>
  <circle cx="762.866" cy="222.26" r="20.517" style="fill: rgb(211, 156, 36); stroke: rgb(0, 0, 0); stroke-width: 3px;"/>
  <path style="stroke: rgb(0, 0, 0); stroke-width: 3px; fill: rgb(161, 220, 172);" d="M 641.611 179.417 C 642.555 178.473 662.305 216.349 687.874 227.303 C 692.744 202.592 739.819 242.542 781.212 228.926 C 789.56 202.592 700.438 191.229 708.166 191.229 C 683.442 207.045 641.015 179.616 641.611 179.417 Z" transform="matrix(-0.91526, -0.402863, 0.402863, -0.91526, 1280.225196, 680.524531)"/>
  <circle cx="733.262" cy="237.132" r="23.756" style="fill: rgb(211, 156, 36); stroke: rgb(0, 0, 0); stroke-width: 3px;"/>
  <path style="stroke: rgb(0, 0, 0); stroke-width: 3px; fill: rgb(161, 220, 172);" d="M 753.847 239.897 C 754.79 240.84 774.54 202.964 800.11 192.011 C 804.98 216.721 852.055 176.771 893.448 190.388 C 901.796 216.721 812.674 228.085 820.402 228.085 C 795.678 212.268 753.251 239.698 753.847 239.897 Z"/>
  <circle cx="773.664" cy="249.291" r="24.062" style="fill: rgb(211, 156, 36); stroke: rgb(0, 0, 0); stroke-width: 3px;"/>
  <path style="stroke: rgb(0, 0, 0); stroke-width: 3px; fill: rgb(161, 220, 172);"/>
  <path style="stroke: rgb(0, 0, 0); fill: rgb(161, 220, 172);" d="M 324.412 85.904"/>
  <path style="stroke-width: 0px; stroke: rgb(0, 0, 0); fill: rgba(0, 0, 0, 0.067);" d="M 1736.239 507.172 C 1745.819 506.216 1730.58 476.426 1716.884 452.295 C 1701.641 425.438 1681.691 396.378 1665.84 378.356 C 1658.225 376.405 1652.024 373.291 1648.95 369.653 C 1644.428 372.058 1637.451 373.545 1629.089 373.545 C 1617.421 373.545 1606.134 370.648 1599.374 366.405 C 1590.249 367.912 1582.479 370.292 1578.359 373.974 C 1572.415 374.258 1482.098 386.035 1472.535 371.748 C 1506.887 355.246 1586.404 364.764 1573.585 351.033 C 1580.717 350.969 1588.395 351.52 1596.113 352.434 C 1596.906 351.802 1597.838 351.212 1598.898 350.671 C 1595.745 350.526 1592.621 350.537 1589.559 350.736 C 1584.321 348.947 1491.623 325.764 1508.957 314.963 C 1565.224 317.322 1612.082 348.418 1625.843 336.852 C 1630.342 338.632 1634.459 340.717 1638.208 342.968 C 1642.064 341.377 1647.395 340.424 1653.614 340.424 C 1661.259 340.424 1668.711 341.863 1674.413 344.156 C 1681.206 340.364 1689.402 336.914 1698.944 334.974 C 1710.687 348.811 1761.796 326.44 1817.642 334.065 C 1833.029 347.779 1737.975 354.243 1732.526 355.081 C 1717.318 351.325 1699.74 352.072 1684.776 354.129 C 1684.771 354.283 1684.756 354.435 1684.735 354.587 C 1694.321 356.203 1702.507 359.621 1706.536 363.81 C 1718.975 365.997 1731.921 367.057 1742.834 365.373 C 1748.567 366.786 1846.524 383.187 1834.442 395.486 C 1779.808 397.424 1722.313 369.462 1713.951 382.265 C 1709.491 380.968 1705.219 379.404 1701.165 377.672 C 1696.67 379.46 1690.538 380.525 1683.416 380.525 C 1683.223 380.525 1683.029 380.524 1682.835 380.523 C 1706.857 407.761 1739.806 451.486 1759.453 480.249 C 1771.753 498.257 1785.846 505.644 1785.199 507.445 Z M 1578.196 374.121 C 1578.249 374.072 1578.304 374.023 1578.359 373.974 C 1578.805 373.953 1578.775 373.996 1578.196 374.121 Z M 1743.191 365.317 C 1743.073 365.336 1742.953 365.355 1742.834 365.373 C 1742.403 365.267 1742.493 365.245 1743.191 365.317 Z M 1589.174 350.762 C 1589.302 350.753 1589.432 350.745 1589.559 350.736 C 1589.953 350.871 1589.854 350.885 1589.174 350.762 Z M 1732.526 355.081 C 1732.652 355.111 1732.778 355.142 1732.903 355.175 C 1732.213 355.175 1732.116 355.143 1732.526 355.081 Z" transform="matrix(0.999248, -0.038765, 0.038765, 0.999248, -14.697107, 64.426589)"/>
  <path style="stroke-width: 2px; stroke: rgb(0, 0, 0); fill: rgb(127, 100, 2);" d="M 1745.393 499.511 C 1753.203 497.804 1750.59 444.609 1747.414 401.516 C 1741.72 324.26 1728.241 236.802 1718.503 237.948 L 1727.465 231.429 C 1735.168 208.321 1761.455 366.452 1772.027 451.435 C 1776.028 483.593 1784.762 496.784 1783.691 500 L 1745.393 499.511 Z"/>
  <path style="stroke: rgb(0, 0, 0); stroke-width: 3px; fill: rgb(161, 220, 172);" d="M 1584.008 224.057 C 1584.951 223.113 1604.697 260.989 1630.265 271.943 C 1635.135 247.232 1682.204 287.182 1723.596 273.566 C 1731.942 247.232 1642.827 235.869 1650.554 235.869 C 1625.833 251.685 1583.412 224.256 1584.008 224.057 Z" transform="matrix(-0.911107, 0.412169, -0.412169, -0.911107, 3264.263903, -203.487662)"/>
  <path style="stroke: rgb(0, 0, 0); stroke-width: 3px; fill: rgb(161, 220, 172);" d="M 1725.239 234.808 C 1726.183 233.865 1745.933 271.741 1771.503 282.694 C 1776.373 257.983 1823.447 297.934 1864.84 284.317 C 1873.189 257.983 1784.066 246.62 1791.794 246.62 C 1767.071 262.437 1724.644 235.007 1725.239 234.808 Z" transform="matrix(0.971736, 0.23607, -0.23607, 0.971736, 112.359199, -416.442341)"/>
  <circle cx="1732.866" cy="222.26" r="20.517" style="fill: rgb(211, 156, 36); stroke: rgb(0, 0, 0); stroke-width: 3px;"/>
  <path style="stroke: rgb(0, 0, 0); stroke-width: 3px; fill: rgb(161, 220, 172);" d="M 1611.611 179.417 C 1612.555 178.473 1632.305 216.349 1657.874 227.303 C 1662.744 202.592 1709.819 242.542 1751.212 228.926 C 1759.56 202.592 1670.438 191.229 1678.166 191.229 C 1653.442 207.045 1611.015 179.616 1611.611 179.417 Z" transform="matrix(-0.91526, -0.402863, 0.402863, -0.91526, 3138.027675, 1071.301797)"/>
  <circle cx="1703.262" cy="237.132" r="23.756" style="fill: rgb(211, 156, 36); stroke: rgb(0, 0, 0); stroke-width: 3px;"/>
  <path style="stroke: rgb(0, 0, 0); stroke-width: 3px; fill: rgb(161, 220, 172);" d="M 1723.847 239.897 C 1724.79 240.84 1744.54 202.964 1770.11 192.011 C 1774.98 216.721 1822.055 176.771 1863.448 190.388 C 1871.796 216.721 1782.674 228.085 1790.402 228.085 C 1765.678 212.268 1723.251 239.698 1723.847 239.897 Z"/>
  <circle cx="1743.664" cy="249.291" r="24.062" style="fill: rgb(211, 156, 36); stroke: rgb(0, 0, 0); stroke-width: 3px;"/>
  <path style="stroke-width: 0px; stroke: rgb(0, 0, 0); fill: rgba(0, 0, 0, 0.067);" d="M 2727.149 506.172 C 2736.729 505.216 2721.49 475.426 2707.794 451.295 C 2692.551 424.438 2672.601 395.378 2656.75 377.356 C 2649.135 375.405 2642.934 372.291 2639.86 368.653 C 2635.338 371.058 2628.361 372.545 2619.999 372.545 C 2608.331 372.545 2597.044 369.648 2590.284 365.405 C 2581.159 366.912 2573.389 369.292 2569.269 372.974 C 2563.325 373.258 2473.008 385.035 2463.445 370.748 C 2497.797 354.246 2577.314 363.764 2564.495 350.033 C 2571.627 349.969 2579.305 350.52 2587.023 351.434 C 2587.816 350.802 2588.748 350.212 2589.808 349.671 C 2586.655 349.526 2583.531 349.537 2580.469 349.736 C 2575.231 347.947 2482.533 324.764 2499.867 313.963 C 2556.134 316.322 2602.992 347.418 2616.753 335.852 C 2621.252 337.632 2625.369 339.717 2629.118 341.968 C 2632.974 340.377 2638.305 339.424 2644.524 339.424 C 2652.169 339.424 2659.621 340.863 2665.323 343.156 C 2672.116 339.364 2680.312 335.914 2689.854 333.974 C 2701.597 347.811 2752.706 325.44 2808.552 333.065 C 2823.939 346.779 2728.885 353.243 2723.436 354.081 C 2708.228 350.325 2690.65 351.072 2675.686 353.129 C 2675.681 353.283 2675.666 353.435 2675.645 353.587 C 2685.231 355.203 2693.417 358.621 2697.446 362.81 C 2709.885 364.997 2722.831 366.057 2733.744 364.373 C 2739.477 365.786 2837.434 382.187 2825.352 394.486 C 2770.718 396.424 2713.223 368.462 2704.861 381.265 C 2700.401 379.968 2696.129 378.404 2692.075 376.672 C 2687.58 378.46 2681.448 379.525 2674.326 379.525 C 2674.133 379.525 2673.939 379.524 2673.745 379.523 C 2697.767 406.761 2730.716 450.486 2750.363 479.249 C 2762.663 497.257 2776.756 504.644 2776.109 506.445 Z M 2569.106 373.121 C 2569.159 373.072 2569.214 373.023 2569.269 372.974 C 2569.715 372.953 2569.685 372.996 2569.106 373.121 Z M 2734.101 364.317 C 2733.983 364.336 2733.863 364.355 2733.744 364.373 C 2733.313 364.267 2733.403 364.245 2734.101 364.317 Z M 2580.084 349.762 C 2580.212 349.753 2580.342 349.745 2580.469 349.736 C 2580.863 349.871 2580.764 349.885 2580.084 349.762 Z M 2723.436 354.081 C 2723.562 354.111 2723.688 354.142 2723.813 354.175 C 2723.123 354.175 2723.026 354.143 2723.436 354.081 Z" transform="matrix(0.999248, -0.038765, 0.038765, 0.999248, -13.913529, 102.838488)"/>
  <path style="stroke-width: 2px; stroke: rgb(0, 0, 0); fill: rgb(127, 100, 2);" d="M 2736.988 498.646 C 2744.798 496.939 2742.185 443.744 2739.009 400.651 C 2733.315 323.395 2719.836 235.937 2710.098 237.083 L 2719.06 230.564 C 2726.763 207.456 2753.05 365.587 2763.622 450.57 C 2767.623 482.728 2776.357 495.919 2775.286 499.135 L 2736.988 498.646 Z"/>
  <path style="stroke: rgb(0, 0, 0); stroke-width: 3px; fill: rgb(161, 220, 172);" d="M 2575.68 223.192 C 2576.623 222.248 2596.373 260.124 2621.943 271.078 C 2626.813 246.367 2673.887 286.317 2715.28 272.701 C 2723.629 246.367 2634.506 235.004 2642.234 235.004 C 2617.511 250.82 2575.084 223.391 2575.68 223.192 Z" transform="matrix(-0.911107, 0.412169, -0.412169, -0.911107, 5159.110933, -613.879903)"/>
  <path style="stroke: rgb(0, 0, 0); stroke-width: 3px; fill: rgb(161, 220, 172);" d="M 2716.834 233.943 C 2717.778 233 2737.528 270.876 2763.098 281.829 C 2767.968 257.118 2815.042 297.069 2856.435 283.452 C 2864.784 257.118 2775.661 245.755 2783.389 245.755 C 2758.666 261.572 2716.239 234.142 2716.834 233.943 Z" transform="matrix(0.971736, 0.23607, -0.23607, 0.971736, 140.181395, -650.552659)"/>
  <circle cx="2724.461" cy="221.395" r="20.517" style="fill: rgb(211, 156, 36); stroke: rgb(0, 0, 0); stroke-width: 3px;"/>
  <path style="stroke: rgb(0, 0, 0); stroke-width: 3px; fill: rgb(161, 220, 172);" d="M 2603.241 178.552 C 2604.185 177.608 2623.934 215.484 2649.5 226.438 C 2654.37 201.727 2701.443 241.677 2742.833 228.061 C 2751.181 201.727 2662.064 190.364 2669.792 190.364 C 2645.069 206.18 2602.645 178.751 2603.241 178.552 Z" transform="matrix(-0.91526, -0.402863, 0.402863, -0.91526, 5037.597009, 1469.134467)"/>
  <circle cx="2694.857" cy="236.267" r="23.756" style="fill: rgb(211, 156, 36); stroke: rgb(0, 0, 0); stroke-width: 3px;"/>
  <path style="stroke: rgb(0, 0, 0); stroke-width: 3px; fill: rgb(161, 220, 172);" d="M 2715.442 239.032 C 2716.385 239.975 2736.135 202.099 2761.705 191.146 C 2766.575 215.856 2813.65 175.906 2855.043 189.523 C 2863.391 215.856 2774.269 227.22 2781.997 227.22 C 2757.273 211.403 2714.846 238.833 2715.442 239.032 Z"/>
  <circle cx="2735.259" cy="248.426" r="24.062" style="fill: rgb(211, 156, 36); stroke: rgb(0, 0, 0); stroke-width: 3px;"/>
  <path style="stroke-width: 0px; stroke: rgb(0, 0, 0); fill: rgba(0, 0, 0, 0.067);" d="M 3698.977 506.172 C 3708.556 505.216 3693.319 475.426 3679.624 451.295 C 3664.382 424.438 3644.435 395.378 3628.585 377.356 C 3620.971 375.405 3614.771 372.291 3611.697 368.653 C 3607.175 371.058 3600.199 372.545 3591.838 372.545 C 3580.171 372.545 3568.885 369.648 3562.126 365.405 C 3553.002 366.912 3545.233 369.292 3541.113 372.974 C 3535.169 373.258 3444.862 385.035 3435.299 370.748 C 3469.648 354.246 3549.157 363.764 3536.339 350.033 C 3543.471 349.969 3551.148 350.52 3558.865 351.434 C 3559.658 350.802 3560.59 350.212 3561.65 349.671 C 3558.497 349.526 3555.374 349.537 3552.312 349.736 C 3547.074 347.947 3454.386 324.764 3471.718 313.963 C 3527.979 316.322 3574.833 347.418 3588.592 335.852 C 3593.091 337.632 3597.207 339.717 3600.956 341.968 C 3604.812 340.377 3610.142 339.424 3616.36 339.424 C 3624.005 339.424 3631.456 340.863 3637.157 343.156 C 3643.95 339.364 3652.145 335.914 3661.686 333.974 C 3673.428 347.811 3724.532 325.44 3780.372 333.065 C 3795.757 346.779 3700.713 353.243 3695.265 354.081 C 3680.058 350.325 3662.482 351.072 3647.52 353.129 C 3647.515 353.283 3647.5 353.435 3647.479 353.587 C 3657.063 355.203 3665.248 358.621 3669.277 362.81 C 3681.715 364.997 3694.66 366.057 3705.572 364.373 C 3711.304 365.786 3809.251 382.187 3797.17 394.486 C 3742.542 396.424 3685.052 368.462 3676.691 381.265 C 3672.232 379.968 3667.96 378.404 3663.906 376.672 C 3659.412 378.46 3653.281 379.525 3646.16 379.525 C 3645.967 379.525 3645.773 379.524 3645.579 379.523 C 3669.598 406.761 3702.544 450.486 3722.189 479.249 C 3734.488 497.257 3748.579 504.644 3747.932 506.445 Z M 3540.95 373.121 C 3541.003 373.072 3541.058 373.023 3541.113 372.974 C 3541.559 372.953 3541.529 372.996 3540.95 373.121 Z M 3705.928 364.317 C 3705.81 364.336 3705.69 364.355 3705.572 364.373 C 3705.141 364.267 3705.231 364.245 3705.928 364.317 Z M 3551.927 349.762 C 3552.055 349.753 3552.185 349.745 3552.312 349.736 C 3552.706 349.871 3552.607 349.885 3551.927 349.762 Z M 3695.265 354.081 C 3695.391 354.111 3695.517 354.142 3695.641 354.175 C 3694.952 354.175 3694.855 354.143 3695.265 354.081 Z" transform="matrix(0.999248, -0.038765, 0.038765, 0.999248, -13.183052, 140.51173)"/>
  <path style="stroke-width: 2px; stroke: rgb(0, 0, 0); fill: rgb(127, 100, 2);" d="M 3706.988 498.646 C 3714.798 496.939 3712.185 443.744 3709.009 400.651 C 3703.315 323.395 3689.836 235.937 3680.098 237.083 L 3689.06 230.564 C 3696.763 207.456 3723.05 365.587 3733.622 450.57 C 3737.623 482.728 3746.357 495.919 3745.286 499.135 L 3706.988 498.646 Z"/>
  <path style="stroke: rgb(0, 0, 0); stroke-width: 3px; fill: rgb(161, 220, 172);" d="M 3545.721 223.183 C 3546.664 222.24 3566.409 260.112 3591.976 271.061 C 3596.846 246.357 3643.913 286.296 3685.304 272.684 C 3693.649 246.357 3604.538 234.995 3612.265 234.995 C 3587.544 250.808 3545.125 223.382 3545.721 223.183 Z" transform="matrix(-0.911107, 0.412169, -0.412169, -0.911107, 7012.941132, -1013.722891)"/>
  <path style="stroke: rgb(0, 0, 0); stroke-width: 3px; fill: rgb(161, 220, 172);" d="M 3686.834 233.943 C 3687.778 233 3707.528 270.876 3733.097 281.829 C 3737.967 257.118 3785.041 297.069 3826.434 283.452 C 3834.783 257.118 3745.66 245.755 3753.388 245.755 C 3728.665 261.572 3686.239 234.142 3686.834 233.943 Z" transform="matrix(0.971736, 0.23607, -0.23607, 0.971736, 167.597414, -879.540458)"/>
  <circle cx="3694.461" cy="221.395" r="20.517" style="fill: rgb(211, 156, 36); stroke: rgb(0, 0, 0); stroke-width: 3px;"/>
  <path style="stroke: rgb(0, 0, 0); stroke-width: 3px; fill: rgb(161, 220, 172);" d="M 3573.298 178.552 C 3574.242 177.608 3593.989 215.484 3619.557 226.438 C 3624.426 201.727 3671.496 241.677 3712.887 228.061 C 3721.234 201.727 3632.119 190.364 3639.846 190.364 C 3615.125 206.18 3572.703 178.751 3573.298 178.552 Z" transform="matrix(-0.91526, -0.402863, 0.402863, -0.91526, 6895.505807, 1859.934096)"/>
  <circle cx="3664.857" cy="236.267" r="23.756" style="fill: rgb(211, 156, 36); stroke: rgb(0, 0, 0); stroke-width: 3px;"/>
  <path style="stroke: rgb(0, 0, 0); stroke-width: 3px; fill: rgb(161, 220, 172);" d="M 3685.442 239.032 C 3686.385 239.975 3706.135 202.099 3731.705 191.146 C 3736.575 215.856 3783.65 175.906 3825.043 189.523 C 3833.391 215.856 3744.269 227.22 3751.997 227.22 C 3727.273 211.403 3684.846 238.833 3685.442 239.032 Z"/>
  <circle cx="3705.259" cy="248.426" r="24.062" style="fill: rgb(211, 156, 36); stroke: rgb(0, 0, 0); stroke-width: 3px;"/>
</svg>