<?xml version="1.0" encoding="utf-8"?>
<svg viewBox="0 0 4000 500" width="4000" height="500" xmlns="http://www.w3.org/2000/svg">
  <defs>
    <linearGradient id="gradient-0" gradientUnits="userSpaceOnUse" x1="2000" y1="300" x2="2000" y2="500">
      <stop offset="0" style="stop-color: rgb(254, 240, 170);"/>
      <stop offset="1" style="stop-color: rgb(255, 253, 240);"/>
    </linearGradient>
  </defs>
  <rect width="4000" height="200" y="300" style="fill: url(#gradient-0);"/>
  <rect y="300" width="500" height="200" style="fill: none; stroke-width: 5px;" x="4"/>
  <path style="fill: none; stroke-width: 5px; stroke: rgb(251, 227, 47);" d="M 2.851 434.795 C 104 382.175 155.041 398.803 256.851 434.795 C 358.403 488.166 404 488.166 503.859 434.795 C 578.179 395.074 649.546 382.175 756.859 434.795 C 860.764 488.166 904 488.166 1002.981 434.795"/>
  <path style="fill: none; stroke-width: 5px; stroke: rgb(251, 227, 47);" d="M 1000 434.795 C 1101.437 382.175 1152.624 398.803 1254.724 434.795 C 1356.566 488.166 1402.292 488.166 1502.436 434.795 C 1576.968 395.074 1648.538 382.175 1756.157 434.795 C 1860.359 488.166 1903.718 488.166 2002.981 434.795"/>
  <path style="fill: none; stroke-width: 5px; stroke: rgb(251, 227, 47);" d="M 2000 434.461 C 2101.317 382.346 2152.444 398.815 2254.423 434.461 C 2356.144 487.32 2401.817 487.32 2501.843 434.461 C 2576.286 395.121 2647.772 382.346 2755.264 434.461 C 2859.342 487.32 2902.65 487.32 3001.796 434.461"/>
  <path style="fill: none; stroke-width: 5px; stroke: rgb(251, 227, 47);" d="M 3000 434.461 C 3101.317 382.346 3152.444 398.815 3254.423 434.461 C 3356.144 487.32 3401.817 487.32 3501.843 434.461 C 3576.286 395.121 3647.772 382.346 3755.264 434.461 C 3859.342 487.32 3902.65 487.32 4001.796 434.461"/>
</svg>